<?xml version="1.0" encoding="UTF-8"?>
<svg xmlns="http://www.w3.org/2000/svg" xmlns:xlink="http://www.w3.org/1999/xlink" width="512pt" height="512pt" viewBox="0 0 512 512" version="1.1">
<g id="surface1">
<path style=" stroke:none;fill-rule:nonzero;fill:rgb(0%,0%,0%);fill-opacity:1;" d="M 244.859375 481.148438 C 242.988281 478.261719 241.289062 437.605469 241.082031 390.800781 C 240.875 343.996094 239.59375 304.589844 238.234375 303.230469 C 233.753906 298.753906 211.976562 305.851562 201.0625 315.34375 C 186.316406 328.171875 180.859375 354.058594 180.265625 413.996094 C 179.863281 454.910156 178.539062 465.265625 173.472656 467.210938 C 170.015625 468.539062 165.3125 468.464844 163.019531 467.050781 C 157.59375 463.695312 161.578125 358.894531 168.0625 334.433594 C 173.277344 314.761719 204.550781 280.628906 217.515625 280.457031 C 221.441406 280.40625 229.132812 276.921875 234.601562 272.71875 C 248.496094 262.03125 243.738281 246.945312 226.472656 246.945312 C 219.695312 246.945312 214.152344 245.054688 214.152344 242.742188 C 214.152344 240.433594 211.332031 238.542969 207.882812 238.542969 C 204.433594 238.542969 196.875 234.421875 191.078125 229.382812 C 182.539062 221.957031 180.546875 216.363281 180.546875 199.828125 C 180.546875 176.65625 188.800781 161.1875 205.882812 152.355469 C 220.027344 145.039062 270.328125 144.8125 302.375 151.914062 C 323.015625 156.492188 326.335938 158.769531 333.515625 173.289062 C 340.5625 187.542969 340.925781 191.863281 336.488281 208.453125 C 331.140625 228.449219 323.75 236.394531 306.574219 240.625 C 264.398438 251.003906 264.566406 250.914062 264.566406 263.828125 C 264.566406 273.902344 266.703125 276.65625 276.117188 278.707031 C 294.554688 282.722656 321.171875 297.054688 326.734375 305.960938 C 333.492188 316.785156 340.019531 380.746094 340.109375 437.039062 C 340.179688 479.421875 339.667969 482.199219 331.78125 482.199219 C 327.160156 482.199219 323.238281 480.78125 323.066406 479.046875 C 322.894531 477.316406 321.921875 471.394531 320.910156 465.894531 C 319.894531 460.394531 321.210938 453.304688 323.835938 450.140625 C 326.765625 446.613281 326.96875 444.390625 324.363281 444.390625 C 321.867188 444.390625 318.855469 421.421875 317.058594 388.726562 C 313.710938 327.710938 309.242188 313.726562 289.910156 303.726562 C 264.460938 290.570312 264.605469 290.199219 264.140625 369.824219 C 263.566406 467.476562 261.648438 486.398438 252.34375 486.398438 C 250.09375 486.398438 246.726562 484.035156 244.859375 481.148438 Z M 291.207031 223.84375 C 307.671875 216.964844 314.976562 206.878906 314.976562 191.019531 C 314.976562 179.074219 309.347656 173.757812 291.871094 169.195312 C 247.003906 157.488281 207.070312 169.089844 196.472656 196.914062 C 192.914062 206.25 196.90625 211.066406 216.253906 220.785156 C 236.726562 231.066406 270.609375 232.449219 291.207031 223.84375 Z M 119.652344 154.558594 C 117.367188 150.855469 126.46875 140.289062 143.484375 126.890625 C 153.210938 119.230469 211.320312 92.152344 224.65625 89.066406 C 244.5 84.472656 247.457031 80 247.160156 55.019531 C 246.859375 30.042969 250.761719 22.480469 261.761719 26.703125 C 268.757812 29.386719 270.367188 36.808594 268.851562 59.351562 C 268.0625 71.082031 280.101562 87.304688 289.59375 87.304688 C 291.996094 87.304688 309.554688 94.867188 328.609375 104.109375 C 347.664062 113.351562 365.625 120.914062 368.519531 120.914062 C 371.417969 120.914062 373.789062 122.355469 373.789062 124.121094 C 373.789062 125.882812 378.042969 129.191406 383.242188 131.472656 C 389.292969 134.125 392.695312 139.269531 392.695312 145.769531 C 392.695312 158.085938 385.410156 161.34375 376.898438 152.828125 C 373.453125 149.382812 363.308594 142.332031 354.355469 137.160156 C 285.386719 97.320312 273.253906 94.816406 224.398438 110.371094 C 204.902344 116.582031 188.949219 123.003906 188.949219 124.644531 C 188.949219 126.285156 181.859375 130.175781 173.195312 133.285156 C 164.527344 136.398438 150.855469 143.394531 142.8125 148.832031 C 126.535156 159.835938 123.394531 160.613281 119.652344 154.558594 Z M 119.652344 154.558594 "/>
</g>
</svg>
